<svg id="Слой_1" data-name="Слой 1" xmlns="http://www.w3.org/2000/svg" viewBox="0 0 1305.57 1281.2"><defs><style>.cls-1{fill:#e5e0f4;}.cls-2{fill:#c5b9f4;}.cls-3{fill:#fff;}.cls-4{fill:#c9c9c9;}.cls-5{fill:#7152f4;}.cls-6{fill:#b1a1f4;}.cls-7{fill:#d1c8f4;}.cls-8{fill:#bfb2f4;}.cls-9{fill:#17156a;}.cls-10{fill:#063147;}.cls-11{fill:#f15543;}.cls-12{fill:#e04f3e;}.cls-13{fill:#ced4f8;}.cls-14{fill:#fcb906;}.cls-15{fill:#ffc458;}.cls-16{fill:#f89e4d;}.cls-17{fill:#fedc78;}</style></defs><path class="cls-1" d="M350.61,1271.52c0,343.38,305.84,372.09,650.55,372.09s624.15-170.34,624.15-513.73-112.08-723.14-456.79-725C717.21,402.51,350.61,928.13,350.61,1271.52Z" transform="translate(-319.74 -403.21)"/><rect class="cls-2" x="906.27" y="62.41" width="204.85" height="368.98"/><rect class="cls-3" x="925.36" y="82.14" width="166.68" height="329.54"/><rect class="cls-2" x="418.15" y="62.41" width="204.85" height="368.98"/><rect class="cls-3" x="437.24" y="82.14" width="166.68" height="329.54"/><rect class="cls-2" x="663.01" width="204.85" height="368.98"/><rect class="cls-3" x="682.1" y="19.72" width="166.68" height="329.54"/><ellipse class="cls-2" cx="632.38" cy="1164.37" rx="632.38" ry="116.83"/><path class="cls-4" d="M711.49,1520s-237.66-1.32-307.46,4.12c-66.82,5.2-48.2,48.76,10,51.43s125.24-.46,125.24-.46-38.69,42.53,31.83,70.37c63.66,25.13,220,14.9,274.75-3.35,75.39-25.13,54.44-74.1,54.44-74.1l297.77-.8c42.22-2.42,79.22-4,79.22-4s-4.8,16.4,99.62,8c66.08-5.32,38.68-31.34,20-42s91.43-5,76-19.2c-20.81-19.21-210.32-27.21-210.32-27.21Z" transform="translate(-319.74 -403.21)"/><path class="cls-5" d="M598.46,1424.89s118.73-294.47,108.85-406.25S624.51,930.5,601,1029.4,551.83,1436,598.46,1424.89Z" transform="translate(-319.74 -403.21)"/><path class="cls-6" d="M662.37,996.41,654.06,1046l-8.69,49.55c-5.88,33-12,66-18.31,98.93-6.42,32.92-12.95,65.82-20,98.61-3.58,16.38-7.27,32.74-11.24,49q-3,12.21-6.37,24.34c-2.33,8-4.58,16.16-7.76,23.92,3-7.82,5.14-16,7.32-24s4.07-16.27,5.93-24.44c3.79-16.33,7.33-32.71,10.73-49.13q10.23-49.24,19.63-98.65c6.42-32.92,12.55-65.88,18.73-98.84Z" transform="translate(-319.74 -403.21)"/><path class="cls-6" d="M584,1406.14s57.72-375.77-17.82-468.9-102.34,128.32-78.6,238.3S551.18,1454.61,584,1406.14Z" transform="translate(-319.74 -403.21)"/><path class="cls-5" d="M534.89,971l2.51,53.65,2.62,53.65c1.82,35.76,3.67,71.52,5.89,107.25s4.53,71.47,7.48,107.14c1.5,17.84,3.16,35.66,5.25,53.44.49,4.44,1,8.89,1.64,13.32s1.22,8.86,1.92,13.28c1.49,8.81,2.89,17.7,5.91,26.15-3.16-8.4-4.72-17.28-6.35-26.07-.78-4.42-1.53-8.83-2.15-13.27s-1.3-8.86-1.87-13.3c-2.27-17.77-4.09-35.59-5.76-53.42-3.24-35.68-5.66-71.41-7.9-107.16q-3.11-53.62-5.47-107.3l-2.11-53.67Z" transform="translate(-319.74 -403.21)"/><path class="cls-7" d="M544.27,1396.43S377,1188.09,428.68,1100.82,568.07,1363.7,562.8,1396.51,544.27,1396.43,544.27,1396.43Z" transform="translate(-319.74 -403.21)"/><path class="cls-3" d="M452.36,1140.35l11,32.6q5.5,16.3,11.16,32.54c7.54,21.66,15.14,43.29,23.16,64.77s16.15,42.92,25,64.07c4.43,10.56,9,21.06,14,31.37s10.27,20.52,17,29.86c-7-9.1-12.5-19.27-17.76-29.45s-9.92-20.71-14.51-31.23c-9.12-21.07-17.38-42.49-25.41-64q-11.82-32.33-22.76-65C465.93,1184.18,458.91,1162.34,452.36,1140.35Z" transform="translate(-319.74 -403.21)"/><path class="cls-8" d="M591.34,1401.42s109.95-243.54,38.06-315.12-69.28,289.37-56,319.83S591.34,1401.42,591.34,1401.42Z" transform="translate(-319.74 -403.21)"/><path class="cls-3" d="M617,1126l-8.37,69.58c-2.75,23.2-5.63,46.38-8.22,69.59s-5.32,46.41-7.64,69.65c-.64,5.81-1.14,11.62-1.69,17.43l-.81,8.72-.68,8.73-.71,8.73-.5,8.74c-.45,5.83-.39,11.66-.44,17.51-.65-23.38,1.5-46.72,3.42-70s4.64-46.51,7.22-69.73q4.11-34.8,8.65-69.56l4.72-34.72Z" transform="translate(-319.74 -403.21)"/><path class="cls-9" d="M594.7,1527.74H561.4a54.32,54.32,0,0,1-54.32-54.32v-75.89a8,8,0,0,1,8-8H641a8,8,0,0,1,8,8v75.89A54.32,54.32,0,0,1,594.7,1527.74Z" transform="translate(-319.74 -403.21)"/><rect class="cls-5" x="187.33" y="1001.95" width="141.94" height="9.53"/><path class="cls-10" d="M608.56,1483.52c-28.72,0-54.22-12-75-31-13.35-12.26-21.82-28.36-26.52-45.57v66.52a54.32,54.32,0,0,0,54.32,54.32h33.3A54.31,54.31,0,0,0,649,1475.22,106.61,106.61,0,0,1,608.56,1483.52Z" transform="translate(-319.74 -403.21)"/><path class="cls-11" d="M1465.86,1393.49c-12.71,70.47-63.48,136.68-177.95,150.44-.18,0-.35,0-.51.08-.36,0-.75.07-1.12.12h-.07c-1,.13-2,.24-3.08.35l-3.23.32c-7.59.72-15.44,1.26-23.55,1.51-184.66,6.19-377.55,15.75-489.39-14.86-195.88-53.57-165.75-513.94-122.23-646.2,18-54.66,57.73-77,104.87-71.88,30.19,3.28,63.41,17.79,95.93,42.3a3.05,3.05,0,0,1,.44.32c38.66,29.25,76.3,72.59,106.59,127.91.66,1.16,1.27,2.32,1.91,3.48,95.42,177.45,355.06,174.42,448.11,221.53a68.31,68.31,0,0,1,7.57,4.48c11.63,7.94,22.27,20,31.2,35C1463.63,1285.71,1475.4,1340.79,1465.86,1393.49Z" transform="translate(-319.74 -403.21)"/><path class="cls-12" d="M1441.35,1248.41h0c-.16-.26-.32-.51-.47-.77-.46-.77-.93-1.53-1.4-2.28-.23-.37-.47-.74-.71-1.11l-1.27-2-.74-1.1c-.44-.65-.88-1.29-1.33-1.92-.23-.34-.47-.67-.71-1-.5-.7-1-1.39-1.52-2.07l-.54-.74c-.7-.92-1.4-1.82-2.11-2.7-.13-.17-.26-.32-.39-.48-.58-.72-1.17-1.42-1.76-2.12l-.75-.87c-.48-.56-1-1.11-1.45-1.65l-.83-.9-1.47-1.57-.79-.81c-.61-.62-1.23-1.24-1.85-1.84l-.41-.4c-.78-.75-1.57-1.47-2.36-2.18l-.41-.35c-.67-.59-1.34-1.16-2-1.72l-.55-.45c-.67-.54-1.34-1.07-2-1.59l-.41-.32c-1-.73-1.95-1.44-2.94-2.12h0a68.45,68.45,0,0,0-7.55-4.49c-93-47.1-352.69-44.08-448.11-221.54-.64-1.16-1.25-2.32-1.91-3.48-1.55-2.42-3.06-4.89-4.54-7.38C918,926,882.4,885.28,846,856c-.15-.11-.29-.24-.44-.33-32.52-24.5-65.74-39-95.93-42.29-63.55,13.64,9.23,351,48.71,455.75,12.8,34,42.54,48.37,79.32,51.24,159.09,12.4,306.25,92.29,400,221.43.8,1.09,1.56,2.1,2.29,3,5.49-.2,4.4-.27,3.24-.33s-2.36-.15,3.08-.35h.06c.29,0,.68-.07,1.14-.13l.5-.07c11.39-1.94,61.51-17.22,67.5-17.74,67-23.88,97.72-65.33,110.45-132.7C1475.4,1340.79,1463.63,1285.71,1441.35,1248.41Z" transform="translate(-319.74 -403.21)"/><path class="cls-13" d="M786.59,1539.25s-6.29-27-29.11-33.89c16,10,21.46,22,17.49,33.65" transform="translate(-319.74 -403.21)"/><path class="cls-13" d="M793,1538.18s-.52-20.34,11.43-18.83c-9.27-4.42-20.22,1.63-19,18.52" transform="translate(-319.74 -403.21)"/><path class="cls-13" d="M787.63,1536.71s1-22.55-5.3-34.4c.31,13.25,1.77,35.36,1.77,35.36Z" transform="translate(-319.74 -403.21)"/><path class="cls-9" d="M753.57,1621.09s49.48,6.7,91.52-19.72-27.16-147.32-32.37-156.62-3,38-3,38,32.37,89.28,30.88,101.19-86.31,13.76-86.31,13.76Z" transform="translate(-319.74 -403.21)"/><path class="cls-9" d="M713.39,1611.05s49.48,6.69,91.52-19.72S777.75,1444,772.54,1434.7s-3,38-3,38,32.37,89.29,30.88,101.19-86.31,13.77-86.31,13.77Z" transform="translate(-319.74 -403.21)"/><path class="cls-14" d="M790.49,1427.91s8.93-25.11,36.27-9.2-9.76,31.53-9.76,31.53l-.56-8.38s12.56-2.51,10.88-9.48-15.62-14.51-27.06-7.54S790.49,1427.91,790.49,1427.91Z" transform="translate(-319.74 -403.21)"/><path class="cls-15" d="M788.91,1425s-174.86,29-220.24,124.26,142.11,77.38,177.08,75.89S866.29,1405.68,788.91,1425Z" transform="translate(-319.74 -403.21)"/><path class="cls-9" d="M596.2,1517.67A129.14,129.14,0,0,0,619,1541.74a152.39,152.39,0,0,0,27.77,18.37,159.61,159.61,0,0,0,15.28,6.7,141.66,141.66,0,0,0,16,4.81,128.27,128.27,0,0,0,33,3.34,177.06,177.06,0,0,1-32.38-5.71,165.72,165.72,0,0,1-30.43-11.93,183.35,183.35,0,0,1-27.67-17.48c-4.34-3.33-8.58-6.82-12.63-10.52A144,144,0,0,1,596.2,1517.67Z" transform="translate(-319.74 -403.21)"/><polygon class="cls-9" points="371.97 1170.49 365.41 1190.02 374.34 1189.32 375.04 1170.35 371.97 1170.49"/><polygon class="cls-9" points="468.23 1128.36 465.8 1147.66 474.39 1145.1 470.54 1124.17 468.23 1128.36"/><rect class="cls-9" x="788.55" y="1524.54" width="3.3" height="4.4" rx="0.52" transform="translate(760.63 2817.98) rotate(-162.35)"/><rect class="cls-9" x="688.58" y="1570.76" width="3.3" height="4.4" rx="0.52" transform="translate(2032.75 736.78) rotate(99.09)"/><path class="cls-9" d="M774.31,1427.36c6.53-1.91,13.67-2.44,20.11-.29a22.79,22.79,0,0,1,4.55,2.14,21.56,21.56,0,0,1,3.88,3.18,25.59,25.59,0,0,1,5.18,8.54,26.67,26.67,0,0,1,1.73,9.85,63.87,63.87,0,0,1-.74,10.13,165.56,165.56,0,0,1-4.28,20c-3.49,13.22-8,26.18-12.64,39-2.34,6.44-4.79,12.84-7.3,19.21s-5.08,12.73-7.7,19.06c5.85-12.4,11.17-25,16.13-37.84a411,411,0,0,0,13-39.06,169.07,169.07,0,0,0,4.19-20.22,66.09,66.09,0,0,0,.67-10.35,33.84,33.84,0,0,0-.46-5.21c-.21-.86-.4-1.73-.62-2.58s-.56-1.65-.88-2.46a26.56,26.56,0,0,0-5.6-8.8,22.63,22.63,0,0,0-4.12-3.24,22.88,22.88,0,0,0-4.78-2.11,28.84,28.84,0,0,0-10.28-1.07A36.71,36.71,0,0,0,774.31,1427.36Z" transform="translate(-319.74 -403.21)"/><path class="cls-16" d="M782.5,1582.68c-.94,1-1.91,3.58-11.68,1.77-5.52-1-21.62-7-21.62-7s7.9,15.53,16.27,17.21S787.2,1590.82,782.5,1582.68Z" transform="translate(-319.74 -403.21)"/><path class="cls-15" d="M726.24,1626.26s30.56,1.29,36.63-1.08c15.25-6,27.72-40.08,19.63-42.5,2.36,12.41-12.29,10.69-22.8,5.11-6.42-3.41-10.5-10.32-10.5-10.32Z" transform="translate(-319.74 -403.21)"/><path class="cls-16" d="M741.44,1622.82a67.68,67.68,0,0,0,27.85-15.49,64.46,64.46,0,0,0,10.41-13c1.46-2.49,3.65-6.55,3.1-10,0-.28-.1-1.2-.08-1.48,7.61,3-4.75,36.51-19.85,42.4-6.07,2.37-36.63,1.08-36.63,1.08S736.6,1624.21,741.44,1622.82Z" transform="translate(-319.74 -403.21)"/><rect class="cls-9" x="126.9" y="400.19" width="12.4" height="734.58"/><ellipse class="cls-9" cx="133.11" cy="1141.57" rx="54.81" ry="16.4"/><path class="cls-9" d="M442.25,806.07a10.4,10.4,0,1,1,10.4,10.4A10.4,10.4,0,0,1,442.25,806.07Z" transform="translate(-319.74 -403.21)"/><path class="cls-9" d="M439.18,1530.11a14.41,14.41,0,1,1,14.4,14.41A14.4,14.4,0,0,1,439.18,1530.11Z" transform="translate(-319.74 -403.21)"/><path class="cls-17" d="M571,760.89a24.33,24.33,0,1,1,13.34-31.72A24.33,24.33,0,0,1,571,760.89Z" transform="translate(-319.74 -403.21)"/><path class="cls-17" d="M521.09,757.37h0a9.86,9.86,0,0,1,5.4-12.86l19.08-7.78a9.85,9.85,0,0,1,12.85,5.41h0c2.06,5-.36,10.8-7.13,11.15l-19.08,7.78C528.9,764.83,523.14,762.41,521.09,757.37Z" transform="translate(-319.74 -403.21)"/><path class="cls-9" d="M591.82,702.82,468.76,799.45a10.17,10.17,0,0,1-14.3-1.72h0a10.17,10.17,0,0,1,1.72-14.3l123.06-96.64a10.19,10.19,0,0,1,14.3,1.72h0A10.19,10.19,0,0,1,591.82,702.82Z" transform="translate(-319.74 -403.21)"/></svg>