<svg xmlns="http://www.w3.org/2000/svg" viewBox="0 0 174.5 91.44"><defs><style>.cls-1,.cls-2{fill:none;stroke:#b07c4d;stroke-width:2px;}.cls-1{stroke-linecap:round;stroke-linejoin:round;}.cls-2{stroke-miterlimit:10;}</style></defs><g id="Слой_2" data-name="Слой 2"><g id="OBJECTS"><path class="cls-1" d="M35.48,90.41V59.31a7.93,7.93,0,0,1,7.93-7.92h0a7.93,7.93,0,0,1,7.92,7.92v23"/><path class="cls-1" d="M124,82V59.3A7.92,7.92,0,0,1,132,51.37h0a7.92,7.92,0,0,1,7.92,7.93V90.39"/><rect class="cls-2" x="51.32" y="72.38" width="72.72" height="18.05" rx="2.29"/><path class="cls-1" d="M42.62,50.93c0-6.9,20.09-17.51,44.86-17.51s44.86,10.86,44.86,17.51"/><path class="cls-1" d="M87.56,72.09c-.43-3.42-8.35-6.16-18-6.16s-17.62,2.74-18.05,6.16"/><path class="cls-1" d="M123.72,72.09c-.42-3.42-8.34-6.16-18-6.16s-17.62,2.74-18.05,6.16"/><path class="cls-1" d="M39.54,74.28V59.11a3.87,3.87,0,0,1,3.87-3.87h0a3.86,3.86,0,0,1,3.86,3.87V90.44H27.42"/><path class="cls-1" d="M149.08,90.44h-21V59.09A3.86,3.86,0,0,1,132,55.23h0a3.86,3.86,0,0,1,3.87,3.86V74.27"/><path class="cls-1" d="M132.27,51.12c-18.62-5.24-26.37,7.5-26.37,14.38"/><path class="cls-1" d="M43.11,51.12c18.62-5.24,26.37,7.5,26.37,14.38"/><line class="cls-1" x1="87.25" y1="24.75" x2="87.25" y2="11.75"/><line class="cls-1" x1="70.12" y1="27.38" x2="63.75" y2="2.5"/><line class="cls-1" x1="53.29" y1="32.61" x2="51" y2="28.75"/><line class="cls-1" x1="38.9" y1="43.95" x2="22.5" y2="27.75"/><line class="cls-1" x1="27.94" y1="58.63" x2="17.5" y2="52.5"/><line class="cls-1" x1="21.16" y1="75.64" x2="1" y2="70.5"/><line class="cls-1" x1="19" y1="90.44" x2="13.5" y2="90.44"/><line class="cls-1" x1="106.13" y1="27.38" x2="113.5" y2="1"/><line class="cls-1" x1="122.96" y1="32.61" x2="125.25" y2="29"/><line class="cls-1" x1="137.35" y1="43.95" x2="156.5" y2="24.75"/><line class="cls-1" x1="148.31" y1="58.63" x2="157.25" y2="53.5"/><line class="cls-1" x1="155.1" y1="75.64" x2="173.5" y2="70.75"/><line class="cls-1" x1="157.25" y1="90.44" x2="164.5" y2="90.44"/><line class="cls-1" x1="78.5" y1="25.42" x2="77.83" y2="20.75"/><line class="cls-1" x1="61.17" y1="29.25" x2="55.33" y2="15.25"/><line class="cls-1" x1="45.25" y1="37.88" x2="35.63" y2="26.13"/><line class="cls-1" x1="31.13" y1="50.5" x2="26.63" y2="47.25"/><line class="cls-1" x1="24" y1="67.5" x2="17.38" y2="65.38"/><line class="cls-1" x1="19.17" y1="83.75" x2="7.5" y2="81.75"/><line class="cls-1" x1="96" y1="25.42" x2="96.67" y2="20.75"/><line class="cls-1" x1="113.33" y1="29.25" x2="119.17" y2="15.25"/><line class="cls-1" x1="129.25" y1="37.88" x2="138.88" y2="26.13"/><line class="cls-1" x1="143.38" y1="50.5" x2="147.88" y2="47.25"/><line class="cls-1" x1="150.5" y1="67.5" x2="157.13" y2="65.38"/><line class="cls-1" x1="155.33" y1="83.75" x2="167" y2="81.75"/></g></g></svg>